# xmcd
# 
# Track frame offsets:
#     150
#     45141
#     70938
#     102733
#     141045
#     156652
#     178254
# 
# Disc length: 2622
# 
# Revision: 1
# Processed by: cddbd v1.5.2PL0 Copyright (c) Steve Scherf et al.
# Submitted via: BonkEnc v1.0.6
# 
DISCID=630a3c07
DTITLE=Denny Zeitlin - Tidal Wave
DYEAR=1981
DGENRE=Contemporary Jazz
TTITLE0=Tidal Wave
TTITLE1=Promenade
TTITLE2=Chelsea Bridge
TTITLE3=County Fair
TTITLE4=Billie's Bounce
TTITLE5=Wherever You Are
TTITLE6=Hotline
EXTD=
EXTT0=
EXTT1=
EXTT2=
EXTT3=
EXTT4=
EXTT5=
EXTT6=
PLAYORDER=
